<svg width="422" height="423" viewBox="0 0 422 423" fill="none" xmlns="http://www.w3.org/2000/svg">
<path d="M121.24 327.52L179.55 166.77H85.87L106.51 109.86H358.2L337.56 166.77L421.05 185.67V79.83C421.05 35.74 385.31 0 341.22 0H79.83C35.74 0 0 35.74 0 79.83V341.22C0 385.31 35.74 421.05 79.83 421.05H251.58L185.57 327.53H121.23L121.24 327.52Z" fill="white"/>
<path d="M106.509 109.852L85.8691 166.772L179.289 167.812L120.979 328.562H185.319L243.629 167.812H337.299L358.209 109.852H106.509Z" fill="#5AA1C3"/>
<path d="M420.789 342.262L421.009 166.632L358.199 109.852L337.299 167.812H243.619L185.309 328.562H120.969L251.569 421.042L340.949 422.082C385.039 422.082 420.779 386.342 420.779 342.252L420.789 342.262Z" fill="url(#paint0_linear_452_23)"/>
<defs>
<linearGradient id="paint0_linear_452_23" x1="245.559" y1="213.132" x2="415.549" y2="443.462" gradientUnits="userSpaceOnUse">
<stop stop-color="#3B728B"/>
<stop offset="0.03" stop-color="#447890"/>
<stop offset="0.29" stop-color="#86A7B7"/>
<stop offset="0.53" stop-color="#BACDD6"/>
<stop offset="0.73" stop-color="#DFE8EC"/>
<stop offset="0.9" stop-color="#F6F8FA"/>
<stop offset="1" stop-color="white"/>
</linearGradient>
</defs>
</svg>
